<svg xmlns="http://www.w3.org/2000/svg" width="247" height="32" viewBox="0 0 247 32" fill="none">
<path fill-rule="evenodd" clip-rule="evenodd" d="M0 10C0 9.44772 0.447715 9 1 9H19C19.5523 9 20 9.44772 20 10C20 10.5523 19.5523 11 19 11H1C0.447715 11 0 10.5523 0 10ZM0 16C0 15.4477 0.447715 15 1 15H12C12.5523 15 13 15.4477 13 16C13 16.5523 12.5523 17 12 17H1C0.447715 17 0 16.5523 0 16ZM1 21C0.447715 21 0 21.4477 0 22C0 22.5523 0.447716 23 1 23H17C17.5523 23 18 22.5523 18 22C18 21.4477 17.5523 21 17 21H1Z" fill="white"/>
</svg>