<svg id="svg" version="1.1" xmlns="http://www.w3.org/2000/svg" xmlns:xlink="http://www.w3.org/1999/xlink" width="20" height="20" viewBox="0, 0, 400,400"><g id="svgg"><path id="path0" d="M50.781 1.785 C 36.558 6.671,5.270 38.572,1.245 52.290 C -1.559 61.848,0.071 75.387,5.081 84.152 C 6.463 86.570,26.987 107.696,63.172 143.945 L 119.126 200.000 63.172 256.055 C 5.503 313.828,4.334 315.121,1.472 324.316 C -4.291 342.833,0.646 354.366,24.364 377.796 C 46.448 399.610,57.657 404.139,75.684 398.528 C 84.879 395.666,86.172 394.497,143.945 336.828 L 200.000 280.874 256.055 336.828 C 313.828 394.497,315.121 395.666,324.316 398.528 C 342.833 404.291,354.366 399.354,377.796 375.636 C 399.610 353.552,404.139 342.343,398.528 324.316 C 395.666 315.121,394.497 313.828,336.828 256.055 L 280.874 200.000 336.828 143.945 C 394.497 86.172,395.666 84.879,398.528 75.684 C 404.285 57.185,399.320 45.581,375.643 22.204 C 353.548 0.389,342.341 -4.138,324.316 1.472 C 315.121 4.334,313.828 5.503,256.055 63.172 L 200.000 119.126 143.945 63.172 C 107.696 26.987,86.570 6.463,84.152 5.081 C 74.717 -0.312,60.866 -1.680,50.781 1.785 M128.499 96.810 C 195.334 163.558,192.401 160.929,200.000 160.929 C 207.599 160.929,204.666 163.558,271.501 96.810 C 319.814 48.559,334.446 34.375,335.904 34.375 C 338.686 34.375,365.625 61.248,365.625 64.023 C 365.625 65.591,352.962 78.663,303.544 128.114 C 237.944 193.757,239.063 192.509,239.063 200.000 C 239.062 207.491,237.944 206.243,303.544 271.886 C 352.962 321.337,365.625 334.409,365.625 335.977 C 365.625 338.756,338.686 365.625,335.900 365.625 C 334.434 365.625,319.988 351.614,271.886 303.544 C 206.243 237.944,207.491 239.063,200.000 239.063 C 192.509 239.063,193.757 237.944,128.114 303.544 C 79.281 352.345,65.579 365.625,64.059 365.625 C 61.258 365.625,34.375 338.757,34.375 335.957 C 34.375 334.416,47.379 320.995,96.456 271.886 C 162.056 206.243,160.937 207.491,160.937 200.000 C 160.937 192.509,162.056 193.757,96.456 128.114 C 47.655 79.281,34.375 65.579,34.375 64.059 C 34.375 61.262,61.243 34.375,64.038 34.375 C 65.573 34.375,79.167 47.542,128.499 96.810 " stroke="none" fill="#fff" fill-rule="evenodd"></path></g></svg>